<svg xmlns="http://www.w3.org/2000/svg" xmlns:xlink="http://www.w3.org/1999/xlink" width="2048" zoomAndPan="magnify" viewBox="0 0 1536 1535.999932" height="2048" preserveAspectRatio="xMidYMid meet" version="1.0"><defs><clipPath id="581384a183"><path d="M 122 422.222656 L 1349 422.222656 L 1349 1113.722656 L 122 1113.722656 Z M 122 422.222656 " clip-rule="nonzero"/></clipPath></defs><g clip-path="url(#581384a183)"><path fill="#484d4d" d="M 122.085938 969.707031 L 122.085938 566.277344 C 122.089844 563.917969 122.148438 561.5625 122.265625 559.210938 C 122.386719 556.855469 122.5625 554.507812 122.792969 552.160156 C 123.027344 549.816406 123.316406 547.480469 123.664062 545.148438 C 124.015625 542.816406 124.417969 540.496094 124.878906 538.183594 C 125.34375 535.875 125.859375 533.574219 126.433594 531.289062 C 127.007812 529.003906 127.640625 526.734375 128.324219 524.476562 C 129.011719 522.222656 129.75 519.988281 130.546875 517.769531 C 131.339844 515.550781 132.191406 513.351562 133.09375 511.175781 C 133.996094 509 134.953125 506.84375 135.960938 504.714844 C 136.96875 502.585938 138.03125 500.480469 139.144531 498.402344 C 140.253906 496.324219 141.417969 494.273438 142.628906 492.253906 C 143.839844 490.234375 145.101562 488.242188 146.410156 486.285156 C 147.722656 484.324219 149.078125 482.398438 150.484375 480.503906 C 151.886719 478.613281 153.335938 476.753906 154.832031 474.933594 C 156.328125 473.113281 157.867188 471.328125 159.449219 469.582031 C 161.03125 467.835938 162.65625 466.128906 164.324219 464.464844 C 165.992188 462.796875 167.695312 461.171875 169.441406 459.589844 C 171.1875 458.007812 172.972656 456.46875 174.792969 454.972656 C 176.617188 453.476562 178.472656 452.027344 180.367188 450.621094 C 182.257812 449.21875 184.183594 447.859375 186.144531 446.550781 C 188.101562 445.242188 190.09375 443.980469 192.113281 442.765625 C 194.132812 441.554688 196.183594 440.394531 198.261719 439.28125 C 200.339844 438.167969 202.445312 437.109375 204.574219 436.101562 C 206.703125 435.089844 208.855469 434.136719 211.035156 433.230469 C 213.210938 432.328125 215.40625 431.480469 217.625 430.683594 C 219.84375 429.890625 222.082031 429.148438 224.335938 428.460938 C 226.589844 427.777344 228.859375 427.148438 231.148438 426.574219 C 233.433594 425.996094 235.730469 425.480469 238.042969 425.019531 C 240.351562 424.554688 242.671875 424.152344 245.003906 423.804688 C 247.335938 423.457031 249.671875 423.164062 252.019531 422.929688 C 254.363281 422.699219 256.714844 422.523438 259.066406 422.40625 C 261.421875 422.285156 263.777344 422.226562 266.132812 422.222656 L 1204.3125 422.222656 C 1206.671875 422.226562 1209.027344 422.285156 1211.378906 422.40625 C 1213.734375 422.523438 1216.082031 422.699219 1218.429688 422.929688 C 1220.773438 423.164062 1223.109375 423.457031 1225.441406 423.804688 C 1227.773438 424.152344 1230.09375 424.554688 1232.40625 425.019531 C 1234.714844 425.480469 1237.015625 425.996094 1239.300781 426.574219 C 1241.585938 427.148438 1243.855469 427.777344 1246.109375 428.460938 C 1248.367188 429.148438 1250.601562 429.890625 1252.820312 430.683594 C 1255.039062 431.480469 1257.238281 432.328125 1259.414062 433.230469 C 1261.589844 434.136719 1263.742188 435.089844 1265.875 436.101562 C 1268.003906 437.109375 1270.105469 438.167969 1272.183594 439.28125 C 1274.261719 440.394531 1276.3125 441.554688 1278.332031 442.765625 C 1280.355469 443.980469 1282.34375 445.242188 1284.304688 446.550781 C 1286.261719 447.859375 1288.1875 449.21875 1290.082031 450.621094 C 1291.972656 452.027344 1293.832031 453.476562 1295.652344 454.972656 C 1297.472656 456.46875 1299.257812 458.007812 1301.003906 459.589844 C 1302.75 461.171875 1304.457031 462.796875 1306.121094 464.464844 C 1307.789062 466.128906 1309.414062 467.835938 1310.996094 469.582031 C 1312.578125 471.328125 1314.117188 473.113281 1315.613281 474.933594 C 1317.109375 476.753906 1318.558594 478.613281 1319.964844 480.503906 C 1321.367188 482.398438 1322.726562 484.324219 1324.035156 486.285156 C 1325.34375 488.242188 1326.605469 490.234375 1327.816406 492.253906 C 1329.03125 494.273438 1330.191406 496.324219 1331.304688 498.402344 C 1332.414062 500.480469 1333.476562 502.585938 1334.484375 504.714844 C 1335.492188 506.84375 1336.449219 509 1337.351562 511.175781 C 1338.253906 513.351562 1339.105469 515.550781 1339.898438 517.769531 C 1340.695312 519.988281 1341.4375 522.222656 1342.121094 524.476562 C 1342.808594 526.734375 1343.4375 529.003906 1344.011719 531.289062 C 1344.585938 533.574219 1345.105469 535.875 1345.566406 538.183594 C 1346.027344 540.496094 1346.433594 542.816406 1346.78125 545.148438 C 1347.128906 547.480469 1347.417969 549.816406 1347.652344 552.160156 C 1347.886719 554.507812 1348.0625 556.855469 1348.179688 559.210938 C 1348.296875 561.5625 1348.359375 563.917969 1348.359375 566.277344 L 1348.359375 969.707031 C 1348.359375 972.0625 1348.296875 974.417969 1348.179688 976.769531 C 1348.058594 979.125 1347.882812 981.472656 1347.648438 983.816406 C 1347.414062 986.164062 1347.125 988.5 1346.777344 990.832031 C 1346.425781 993.160156 1346.023438 995.480469 1345.558594 997.792969 C 1345.097656 1000.105469 1344.578125 1002.402344 1344.003906 1004.6875 C 1343.429688 1006.972656 1342.800781 1009.242188 1342.113281 1011.496094 C 1341.425781 1013.75 1340.6875 1015.988281 1339.890625 1018.203125 C 1339.09375 1020.421875 1338.246094 1022.621094 1337.34375 1024.796875 C 1336.4375 1026.972656 1335.484375 1029.125 1334.472656 1031.253906 C 1333.464844 1033.382812 1332.402344 1035.488281 1331.292969 1037.566406 C 1330.179688 1039.644531 1329.019531 1041.691406 1327.804688 1043.710938 C 1326.59375 1045.734375 1325.332031 1047.722656 1324.023438 1049.683594 C 1322.710938 1051.640625 1321.355469 1053.566406 1319.949219 1055.457031 C 1318.546875 1057.351562 1317.097656 1059.207031 1315.601562 1061.027344 C 1314.105469 1062.847656 1312.566406 1064.632812 1310.984375 1066.378906 C 1309.402344 1068.125 1307.777344 1069.828125 1306.109375 1071.496094 C 1304.445312 1073.160156 1302.738281 1074.785156 1300.992188 1076.367188 C 1299.246094 1077.949219 1297.460938 1079.488281 1295.640625 1080.984375 C 1293.820312 1082.480469 1291.960938 1083.929688 1290.070312 1085.332031 C 1288.175781 1086.738281 1286.25 1088.09375 1284.292969 1089.402344 C 1282.332031 1090.710938 1280.34375 1091.972656 1278.324219 1093.183594 C 1276.300781 1094.398438 1274.253906 1095.558594 1272.175781 1096.671875 C 1270.097656 1097.78125 1267.992188 1098.84375 1265.863281 1099.851562 C 1263.734375 1100.859375 1261.582031 1101.816406 1259.40625 1102.71875 C 1257.226562 1103.621094 1255.03125 1104.46875 1252.8125 1105.265625 C 1250.59375 1106.058594 1248.359375 1106.800781 1246.105469 1107.484375 C 1243.851562 1108.171875 1241.578125 1108.800781 1239.292969 1109.375 C 1237.007812 1109.949219 1234.710938 1110.46875 1232.402344 1110.929688 C 1230.089844 1111.390625 1227.769531 1111.796875 1225.4375 1112.144531 C 1223.109375 1112.492188 1220.769531 1112.78125 1218.425781 1113.015625 C 1216.082031 1113.25 1213.730469 1113.421875 1211.378906 1113.542969 C 1209.023438 1113.660156 1206.671875 1113.71875 1204.3125 1113.722656 L 266.132812 1113.722656 C 263.777344 1113.71875 261.421875 1113.660156 259.066406 1113.542969 C 256.714844 1113.421875 254.367188 1113.25 252.019531 1113.015625 C 249.675781 1112.78125 247.339844 1112.492188 245.007812 1112.144531 C 242.675781 1111.796875 240.355469 1111.390625 238.046875 1110.929688 C 235.734375 1110.46875 233.4375 1109.949219 231.152344 1109.375 C 228.867188 1108.800781 226.597656 1108.171875 224.34375 1107.484375 C 222.089844 1106.800781 219.851562 1106.058594 217.632812 1105.265625 C 215.414062 1104.46875 213.21875 1103.621094 211.042969 1102.71875 C 208.863281 1101.816406 206.710938 1100.859375 204.582031 1099.851562 C 202.453125 1098.84375 200.347656 1097.78125 198.273438 1096.671875 C 196.195312 1095.558594 194.144531 1094.398438 192.125 1093.183594 C 190.101562 1091.972656 188.113281 1090.710938 186.152344 1089.402344 C 184.195312 1088.09375 182.269531 1086.738281 180.378906 1085.332031 C 178.484375 1083.929688 176.628906 1082.480469 174.804688 1080.984375 C 172.984375 1079.488281 171.203125 1077.949219 169.457031 1076.367188 C 167.710938 1074.785156 166.003906 1073.160156 164.335938 1071.496094 C 162.671875 1069.828125 161.046875 1068.125 159.464844 1066.378906 C 157.878906 1064.632812 156.339844 1062.847656 154.847656 1061.027344 C 153.351562 1059.207031 151.902344 1057.351562 150.496094 1055.457031 C 149.09375 1053.566406 147.734375 1051.640625 146.425781 1049.683594 C 145.113281 1047.722656 143.855469 1045.734375 142.640625 1043.710938 C 141.429688 1041.691406 140.265625 1039.644531 139.15625 1037.566406 C 138.042969 1035.488281 136.980469 1033.382812 135.972656 1031.253906 C 134.964844 1029.125 134.007812 1026.972656 133.105469 1024.796875 C 132.203125 1022.621094 131.351562 1020.421875 130.554688 1018.203125 C 129.761719 1015.988281 129.019531 1013.75 128.332031 1011.496094 C 127.648438 1009.242188 127.015625 1006.972656 126.441406 1004.6875 C 125.867188 1002.402344 125.347656 1000.105469 124.886719 997.792969 C 124.425781 995.480469 124.019531 993.160156 123.671875 990.832031 C 123.324219 988.5 123.03125 986.164062 122.796875 983.816406 C 122.5625 981.472656 122.386719 979.125 122.269531 976.769531 C 122.148438 974.417969 122.089844 972.0625 122.085938 969.707031 Z M 1311.484375 566.277344 C 1311.480469 564.523438 1311.433594 562.773438 1311.34375 561.023438 C 1311.253906 559.277344 1311.121094 557.53125 1310.949219 555.789062 C 1310.773438 554.042969 1310.554688 552.308594 1310.296875 550.574219 C 1310.035156 548.84375 1309.734375 547.117188 1309.390625 545.402344 C 1309.042969 543.683594 1308.660156 541.976562 1308.230469 540.277344 C 1307.804688 538.578125 1307.332031 536.890625 1306.824219 535.214844 C 1306.3125 533.539062 1305.761719 531.878906 1305.167969 530.230469 C 1304.578125 528.582031 1303.945312 526.949219 1303.273438 525.332031 C 1302.601562 523.714844 1301.890625 522.113281 1301.140625 520.53125 C 1300.390625 518.949219 1299.601562 517.386719 1298.773438 515.839844 C 1297.949219 514.296875 1297.085938 512.773438 1296.183594 511.273438 C 1295.28125 509.769531 1294.34375 508.292969 1293.371094 506.835938 C 1292.394531 505.378906 1291.386719 503.949219 1290.34375 502.542969 C 1289.300781 501.136719 1288.222656 499.757812 1287.109375 498.402344 C 1286 497.046875 1284.855469 495.722656 1283.679688 494.425781 C 1282.503906 493.128906 1281.296875 491.859375 1280.058594 490.621094 C 1278.816406 489.382812 1277.550781 488.175781 1276.253906 487 C 1274.957031 485.824219 1273.628906 484.679688 1272.277344 483.566406 C 1270.921875 482.457031 1269.542969 481.378906 1268.136719 480.332031 C 1266.730469 479.289062 1265.296875 478.28125 1263.84375 477.308594 C 1262.386719 476.332031 1260.910156 475.394531 1259.40625 474.496094 C 1257.90625 473.59375 1256.382812 472.730469 1254.839844 471.902344 C 1253.292969 471.074219 1251.730469 470.285156 1250.148438 469.535156 C 1248.566406 468.785156 1246.964844 468.074219 1245.347656 467.402344 C 1243.730469 466.730469 1242.097656 466.097656 1240.449219 465.507812 C 1238.800781 464.914062 1237.140625 464.363281 1235.464844 463.851562 C 1233.789062 463.34375 1232.101562 462.875 1230.402344 462.445312 C 1228.703125 462.019531 1226.996094 461.632812 1225.28125 461.289062 C 1223.5625 460.941406 1221.835938 460.640625 1220.105469 460.382812 C 1218.375 460.121094 1216.636719 459.902344 1214.894531 459.730469 C 1213.152344 459.554688 1211.40625 459.421875 1209.65625 459.332031 C 1207.90625 459.242188 1206.15625 459.199219 1204.40625 459.195312 L 266.132812 459.195312 C 264.378906 459.199219 262.628906 459.242188 260.878906 459.332031 C 259.128906 459.421875 257.382812 459.554688 255.636719 459.730469 C 253.894531 459.90625 252.15625 460.121094 250.421875 460.382812 C 248.691406 460.640625 246.964844 460.945312 245.246094 461.289062 C 243.527344 461.632812 241.820312 462.019531 240.121094 462.449219 C 238.421875 462.878906 236.734375 463.347656 235.058594 463.859375 C 233.382812 464.371094 231.71875 464.921875 230.070312 465.515625 C 228.421875 466.105469 226.785156 466.738281 225.167969 467.410156 C 223.550781 468.085938 221.949219 468.796875 220.367188 469.546875 C 218.78125 470.296875 217.21875 471.085938 215.675781 471.914062 C 214.128906 472.742188 212.605469 473.609375 211.105469 474.511719 C 209.601562 475.414062 208.121094 476.351562 206.667969 477.328125 C 205.210938 478.300781 203.777344 479.3125 202.371094 480.355469 C 200.964844 481.402344 199.585938 482.480469 198.230469 483.59375 C 196.878906 484.703125 195.550781 485.851562 194.253906 487.027344 C 192.957031 488.203125 191.6875 489.414062 190.449219 490.652344 C 189.210938 491.894531 188.003906 493.164062 186.828125 494.460938 C 185.648438 495.761719 184.507812 497.085938 183.394531 498.441406 C 182.285156 499.796875 181.207031 501.179688 180.160156 502.585938 C 179.117188 503.992188 178.109375 505.425781 177.136719 506.882812 C 176.164062 508.339844 175.226562 509.820312 174.324219 511.324219 C 173.421875 512.828125 172.558594 514.351562 171.734375 515.894531 C 170.90625 517.441406 170.117188 519.007812 169.371094 520.589844 C 168.621094 522.175781 167.910156 523.777344 167.238281 525.394531 C 166.566406 527.011719 165.933594 528.648438 165.34375 530.296875 C 164.753906 531.945312 164.203125 533.609375 163.691406 535.285156 C 163.183594 536.964844 162.714844 538.652344 162.289062 540.351562 C 161.859375 542.050781 161.476562 543.761719 161.132812 545.480469 C 160.789062 547.195312 160.488281 548.921875 160.230469 550.65625 C 159.972656 552.390625 159.753906 554.128906 159.582031 555.871094 C 159.410156 557.617188 159.277344 559.363281 159.191406 561.113281 C 159.101562 562.863281 159.058594 564.613281 159.054688 566.367188 L 159.054688 969.707031 C 159.058594 971.457031 159.101562 973.210938 159.191406 974.960938 C 159.277344 976.710938 159.410156 978.457031 159.582031 980.199219 C 159.753906 981.945312 159.972656 983.683594 160.230469 985.417969 C 160.488281 987.148438 160.789062 988.875 161.132812 990.59375 C 161.476562 992.3125 161.859375 994.023438 162.289062 995.722656 C 162.714844 997.421875 163.183594 999.109375 163.691406 1000.785156 C 164.203125 1002.464844 164.753906 1004.125 165.34375 1005.777344 C 165.933594 1007.425781 166.566406 1009.058594 167.238281 1010.679688 C 167.910156 1012.296875 168.621094 1013.898438 169.367188 1015.484375 C 170.117188 1017.066406 170.90625 1018.632812 171.734375 1020.175781 C 172.558594 1021.722656 173.421875 1023.246094 174.324219 1024.75 C 175.226562 1026.253906 176.164062 1027.734375 177.136719 1029.191406 C 178.109375 1030.648438 179.117188 1032.078125 180.160156 1033.488281 C 181.207031 1034.894531 182.285156 1036.277344 183.394531 1037.632812 C 184.507812 1038.984375 185.648438 1040.3125 186.828125 1041.613281 C 188.003906 1042.910156 189.210938 1044.179688 190.449219 1045.417969 C 191.6875 1046.660156 192.957031 1047.867188 194.253906 1049.046875 C 195.550781 1050.222656 196.878906 1051.367188 198.230469 1052.480469 C 199.585938 1053.59375 200.964844 1054.671875 202.371094 1055.71875 C 203.777344 1056.761719 205.210938 1057.773438 206.667969 1058.746094 C 208.121094 1059.722656 209.601562 1060.660156 211.105469 1061.5625 C 212.605469 1062.464844 214.128906 1063.328125 215.675781 1064.15625 C 217.21875 1064.984375 218.78125 1065.773438 220.367188 1066.527344 C 221.949219 1067.277344 223.550781 1067.988281 225.167969 1068.660156 C 226.785156 1069.335938 228.421875 1069.964844 230.070312 1070.558594 C 231.71875 1071.152344 233.382812 1071.703125 235.058594 1072.214844 C 236.734375 1072.726562 238.421875 1073.195312 240.121094 1073.625 C 241.820312 1074.050781 243.527344 1074.4375 245.246094 1074.785156 C 246.964844 1075.128906 248.691406 1075.429688 250.421875 1075.691406 C 252.15625 1075.949219 253.894531 1076.167969 255.636719 1076.34375 C 257.382812 1076.519531 259.128906 1076.652344 260.878906 1076.738281 C 262.628906 1076.828125 264.378906 1076.875 266.132812 1076.878906 L 1204.3125 1076.878906 C 1206.066406 1076.875 1207.816406 1076.828125 1209.566406 1076.738281 C 1211.316406 1076.652344 1213.066406 1076.519531 1214.808594 1076.34375 C 1216.550781 1076.167969 1218.289062 1075.949219 1220.023438 1075.691406 C 1221.757812 1075.429688 1223.480469 1075.128906 1225.199219 1074.785156 C 1226.917969 1074.4375 1228.625 1074.050781 1230.324219 1073.625 C 1232.023438 1073.195312 1233.714844 1072.726562 1235.390625 1072.214844 C 1237.066406 1071.703125 1238.726562 1071.152344 1240.378906 1070.558594 C 1242.027344 1069.964844 1243.660156 1069.335938 1245.277344 1068.660156 C 1246.894531 1067.988281 1248.496094 1067.277344 1250.082031 1066.527344 C 1251.664062 1065.773438 1253.226562 1064.984375 1254.773438 1064.15625 C 1256.316406 1063.328125 1257.839844 1062.464844 1259.34375 1061.5625 C 1260.84375 1060.660156 1262.324219 1059.722656 1263.78125 1058.746094 C 1265.238281 1057.773438 1266.667969 1056.761719 1268.074219 1055.71875 C 1269.480469 1054.671875 1270.863281 1053.59375 1272.214844 1052.480469 C 1273.570312 1051.367188 1274.894531 1050.222656 1276.191406 1049.046875 C 1277.492188 1047.867188 1278.757812 1046.660156 1279.996094 1045.417969 C 1281.238281 1044.179688 1282.445312 1042.910156 1283.621094 1041.613281 C 1284.796875 1040.3125 1285.941406 1038.984375 1287.050781 1037.632812 C 1288.164062 1036.277344 1289.242188 1034.894531 1290.285156 1033.488281 C 1291.328125 1032.078125 1292.335938 1030.648438 1293.3125 1029.191406 C 1294.285156 1027.734375 1295.222656 1026.253906 1296.121094 1024.75 C 1297.023438 1023.246094 1297.886719 1021.722656 1298.714844 1020.175781 C 1299.539062 1018.632812 1300.328125 1017.066406 1301.078125 1015.484375 C 1301.828125 1013.898438 1302.539062 1012.296875 1303.207031 1010.679688 C 1303.878906 1009.058594 1304.511719 1007.425781 1305.101562 1005.777344 C 1305.695312 1004.125 1306.242188 1002.464844 1306.753906 1000.785156 C 1307.261719 999.109375 1307.730469 997.421875 1308.160156 995.722656 C 1308.585938 994.023438 1308.96875 992.3125 1309.3125 990.59375 C 1309.65625 988.875 1309.957031 987.148438 1310.214844 985.417969 C 1310.476562 983.683594 1310.691406 981.945312 1310.863281 980.203125 C 1311.039062 978.457031 1311.167969 976.710938 1311.257812 974.960938 C 1311.34375 973.210938 1311.390625 971.457031 1311.390625 969.707031 Z M 1311.484375 566.277344 " fill-opacity="1" fill-rule="nonzero"/></g><path fill="#484d4d" d="M 1450.992188 728.953125 L 1450.992188 807.210938 C 1450.992188 808.300781 1450.964844 809.390625 1450.910156 810.476562 C 1450.859375 811.5625 1450.777344 812.648438 1450.671875 813.734375 C 1450.566406 814.816406 1450.433594 815.894531 1450.273438 816.972656 C 1450.113281 818.050781 1449.925781 819.121094 1449.714844 820.191406 C 1449.5 821.257812 1449.261719 822.320312 1449 823.375 C 1448.734375 824.429688 1448.445312 825.480469 1448.128906 826.523438 C 1447.8125 827.5625 1447.46875 828.597656 1447.105469 829.621094 C 1446.738281 830.648438 1446.34375 831.664062 1445.929688 832.667969 C 1445.511719 833.671875 1445.070312 834.667969 1444.605469 835.652344 C 1444.140625 836.636719 1443.652344 837.609375 1443.136719 838.570312 C 1442.625 839.527344 1442.089844 840.476562 1441.527344 841.410156 C 1440.96875 842.34375 1440.386719 843.261719 1439.78125 844.167969 C 1439.175781 845.074219 1438.550781 845.964844 1437.902344 846.835938 C 1437.253906 847.710938 1436.585938 848.570312 1435.894531 849.410156 C 1435.203125 850.253906 1434.492188 851.078125 1433.761719 851.882812 C 1433.03125 852.691406 1432.28125 853.476562 1431.511719 854.246094 C 1430.742188 855.019531 1429.953125 855.769531 1429.144531 856.5 C 1428.339844 857.230469 1427.515625 857.941406 1426.671875 858.632812 C 1425.832031 859.324219 1424.972656 859.992188 1424.101562 860.640625 C 1423.226562 861.289062 1422.335938 861.914062 1421.429688 862.519531 C 1420.527344 863.125 1419.605469 863.707031 1418.671875 864.265625 C 1417.738281 864.828125 1416.792969 865.363281 1415.832031 865.875 C 1414.871094 866.390625 1413.898438 866.878906 1412.914062 867.34375 C 1411.933594 867.808594 1410.9375 868.25 1409.929688 868.667969 C 1408.925781 869.082031 1407.910156 869.476562 1406.886719 869.84375 C 1405.859375 870.210938 1404.828125 870.550781 1403.785156 870.867188 C 1402.742188 871.183594 1401.695312 871.472656 1400.640625 871.738281 C 1399.582031 872 1398.519531 872.242188 1397.453125 872.453125 C 1396.386719 872.664062 1395.3125 872.851562 1394.238281 873.011719 C 1393.160156 873.171875 1392.078125 873.304688 1390.996094 873.410156 C 1389.914062 873.515625 1388.828125 873.597656 1387.742188 873.652344 C 1386.652344 873.703125 1385.566406 873.730469 1384.476562 873.730469 L 1353.171875 873.730469 C 1352.144531 873.730469 1351.121094 873.679688 1350.101562 873.582031 C 1349.082031 873.480469 1348.066406 873.328125 1347.0625 873.128906 C 1346.058594 872.929688 1345.0625 872.679688 1344.082031 872.382812 C 1343.101562 872.085938 1342.136719 871.738281 1341.191406 871.347656 C 1340.242188 870.957031 1339.316406 870.515625 1338.414062 870.035156 C 1337.507812 869.550781 1336.628906 869.023438 1335.777344 868.453125 C 1334.925781 867.886719 1334.101562 867.273438 1333.308594 866.625 C 1332.515625 865.972656 1331.757812 865.285156 1331.03125 864.5625 C 1330.308594 863.835938 1329.621094 863.078125 1328.96875 862.285156 C 1328.320312 861.492188 1327.710938 860.667969 1327.140625 859.816406 C 1326.570312 858.964844 1326.042969 858.085938 1325.558594 857.179688 C 1325.078125 856.277344 1324.640625 855.351562 1324.246094 854.402344 C 1323.855469 853.457031 1323.507812 852.492188 1323.210938 851.511719 C 1322.914062 850.53125 1322.664062 849.535156 1322.464844 848.53125 C 1322.265625 847.523438 1322.113281 846.511719 1322.015625 845.492188 C 1321.914062 844.472656 1321.863281 843.449219 1321.863281 842.421875 L 1321.863281 693.652344 C 1321.863281 692.625 1321.914062 691.601562 1322.015625 690.582031 C 1322.113281 689.5625 1322.265625 688.546875 1322.464844 687.542969 C 1322.664062 686.535156 1322.914062 685.542969 1323.210938 684.5625 C 1323.507812 683.582031 1323.855469 682.617188 1324.246094 681.667969 C 1324.640625 680.722656 1325.078125 679.796875 1325.558594 678.890625 C 1326.042969 677.988281 1326.570312 677.109375 1327.140625 676.257812 C 1327.710938 675.402344 1328.320312 674.582031 1328.96875 673.789062 C 1329.621094 672.996094 1330.308594 672.238281 1331.03125 671.511719 C 1331.757812 670.789062 1332.515625 670.097656 1333.308594 669.449219 C 1334.101562 668.796875 1334.925781 668.1875 1335.777344 667.617188 C 1336.628906 667.050781 1337.507812 666.523438 1338.414062 666.039062 C 1339.316406 665.554688 1340.242188 665.117188 1341.191406 664.726562 C 1342.136719 664.332031 1343.101562 663.988281 1344.082031 663.691406 C 1345.0625 663.394531 1346.058594 663.144531 1347.0625 662.945312 C 1348.066406 662.742188 1349.082031 662.59375 1350.101562 662.492188 C 1351.121094 662.394531 1352.144531 662.34375 1353.171875 662.34375 L 1384.476562 662.34375 C 1385.566406 662.34375 1386.65625 662.367188 1387.742188 662.421875 C 1388.832031 662.476562 1389.917969 662.554688 1391.003906 662.664062 C 1392.085938 662.769531 1393.167969 662.902344 1394.246094 663.0625 C 1395.324219 663.222656 1396.394531 663.410156 1397.464844 663.621094 C 1398.53125 663.835938 1399.597656 664.074219 1400.652344 664.339844 C 1401.710938 664.605469 1402.757812 664.894531 1403.800781 665.210938 C 1404.84375 665.527344 1405.878906 665.871094 1406.902344 666.238281 C 1407.929688 666.605469 1408.945312 666.996094 1409.953125 667.414062 C 1410.957031 667.832031 1411.953125 668.273438 1412.9375 668.738281 C 1413.921875 669.207031 1414.894531 669.695312 1415.855469 670.210938 C 1416.816406 670.722656 1417.765625 671.261719 1418.699219 671.820312 C 1419.632812 672.382812 1420.554688 672.964844 1421.460938 673.570312 C 1422.363281 674.175781 1423.253906 674.804688 1424.128906 675.453125 C 1425.003906 676.105469 1425.863281 676.773438 1426.703125 677.464844 C 1427.546875 678.160156 1428.371094 678.871094 1429.175781 679.601562 C 1429.984375 680.335938 1430.773438 681.085938 1431.542969 681.855469 C 1432.3125 682.628906 1433.0625 683.417969 1433.792969 684.226562 C 1434.523438 685.035156 1435.234375 685.859375 1435.925781 686.703125 C 1436.617188 687.542969 1437.285156 688.402344 1437.933594 689.277344 C 1438.582031 690.15625 1439.210938 691.046875 1439.8125 691.953125 C 1440.417969 692.859375 1441 693.78125 1441.558594 694.714844 C 1442.117188 695.648438 1442.65625 696.597656 1443.167969 697.558594 C 1443.679688 698.519531 1444.167969 699.492188 1444.632812 700.480469 C 1445.097656 701.464844 1445.539062 702.460938 1445.953125 703.46875 C 1446.371094 704.476562 1446.761719 705.492188 1447.128906 706.519531 C 1447.492188 707.542969 1447.835938 708.578125 1448.148438 709.621094 C 1448.464844 710.664062 1448.753906 711.714844 1449.015625 712.773438 C 1449.28125 713.828125 1449.519531 714.890625 1449.730469 715.960938 C 1449.941406 717.03125 1450.125 718.105469 1450.285156 719.183594 C 1450.441406 720.257812 1450.574219 721.339844 1450.679688 722.425781 C 1450.785156 723.511719 1450.863281 724.597656 1450.917969 725.683594 C 1450.96875 726.773438 1450.992188 727.863281 1450.992188 728.953125 Z M 1450.992188 728.953125 " fill-opacity="1" fill-rule="nonzero"/><path fill="#38e053" d="M 1271.539062 578.980469 L 1271.539062 957.019531 C 1271.539062 958.351562 1271.503906 959.683594 1271.4375 961.015625 C 1271.375 962.347656 1271.277344 963.675781 1271.144531 965.003906 C 1271.015625 966.328125 1270.851562 967.652344 1270.65625 968.972656 C 1270.460938 970.289062 1270.230469 971.601562 1269.972656 972.910156 C 1269.710938 974.21875 1269.421875 975.519531 1269.097656 976.8125 C 1268.773438 978.105469 1268.417969 979.390625 1268.03125 980.664062 C 1267.644531 981.941406 1267.226562 983.207031 1266.777344 984.460938 C 1266.328125 985.714844 1265.847656 986.960938 1265.335938 988.191406 C 1264.828125 989.421875 1264.285156 990.640625 1263.71875 991.847656 C 1263.148438 993.050781 1262.546875 994.242188 1261.917969 995.417969 C 1261.292969 996.59375 1260.632812 997.753906 1259.949219 998.894531 C 1259.265625 1000.039062 1258.550781 1001.164062 1257.808594 1002.273438 C 1257.070312 1003.382812 1256.300781 1004.472656 1255.507812 1005.542969 C 1254.714844 1006.613281 1253.894531 1007.664062 1253.046875 1008.695312 C 1252.203125 1009.722656 1251.332031 1010.734375 1250.4375 1011.722656 C 1249.542969 1012.710938 1248.625 1013.675781 1247.679688 1014.617188 C 1246.738281 1015.558594 1245.773438 1016.480469 1244.785156 1017.375 C 1243.796875 1018.269531 1242.789062 1019.140625 1241.757812 1019.984375 C 1240.726562 1020.832031 1239.675781 1021.652344 1238.605469 1022.445312 C 1237.535156 1023.238281 1236.445312 1024.007812 1235.335938 1024.746094 C 1234.230469 1025.488281 1233.101562 1026.199219 1231.960938 1026.886719 C 1230.816406 1027.570312 1229.65625 1028.226562 1228.480469 1028.855469 C 1227.304688 1029.484375 1226.117188 1030.085938 1224.910156 1030.652344 C 1223.707031 1031.222656 1222.488281 1031.765625 1221.253906 1032.273438 C 1220.023438 1032.785156 1218.78125 1033.265625 1217.527344 1033.714844 C 1216.269531 1034.164062 1215.003906 1034.582031 1213.730469 1034.96875 C 1212.453125 1035.355469 1211.167969 1035.710938 1209.875 1036.035156 C 1208.582031 1036.359375 1207.285156 1036.648438 1205.976562 1036.910156 C 1204.667969 1037.167969 1203.355469 1037.398438 1202.035156 1037.59375 C 1200.71875 1037.789062 1199.394531 1037.953125 1198.070312 1038.082031 C 1196.742188 1038.214844 1195.414062 1038.3125 1194.082031 1038.375 C 1192.75 1038.441406 1191.417969 1038.476562 1190.085938 1038.476562 L 280.378906 1038.476562 C 279.046875 1038.476562 277.714844 1038.441406 276.382812 1038.375 C 275.050781 1038.3125 273.722656 1038.214844 272.394531 1038.082031 C 271.070312 1037.953125 269.746094 1037.789062 268.425781 1037.59375 C 267.109375 1037.398438 265.796875 1037.167969 264.488281 1036.910156 C 263.179688 1036.648438 261.882812 1036.359375 260.589844 1036.035156 C 259.296875 1035.710938 258.011719 1035.355469 256.734375 1034.96875 C 255.460938 1034.582031 254.195312 1034.164062 252.9375 1033.714844 C 251.683594 1033.265625 250.441406 1032.785156 249.210938 1032.273438 C 247.976562 1031.765625 246.757812 1031.222656 245.554688 1030.652344 C 244.347656 1030.085938 243.160156 1029.484375 241.984375 1028.855469 C 240.808594 1028.226562 239.648438 1027.570312 238.503906 1026.886719 C 237.363281 1026.199219 236.234375 1025.488281 235.128906 1024.746094 C 234.019531 1024.007812 232.929688 1023.238281 231.859375 1022.445312 C 230.789062 1021.652344 229.738281 1020.832031 228.707031 1019.984375 C 227.675781 1019.140625 226.667969 1018.269531 225.679688 1017.375 C 224.691406 1016.480469 223.726562 1015.558594 222.785156 1014.617188 C 221.839844 1013.675781 220.921875 1012.710938 220.027344 1011.722656 C 219.132812 1010.734375 218.261719 1009.722656 217.417969 1008.695312 C 216.570312 1007.664062 215.75 1006.613281 214.957031 1005.542969 C 214.164062 1004.472656 213.394531 1003.382812 212.65625 1002.273438 C 211.914062 1001.164062 211.199219 1000.039062 210.515625 998.894531 C 209.832031 997.753906 209.171875 996.59375 208.546875 995.417969 C 207.917969 994.242188 207.316406 993.050781 206.746094 991.847656 C 206.179688 990.640625 205.636719 989.421875 205.128906 988.191406 C 204.617188 986.960938 204.136719 985.714844 203.6875 984.460938 C 203.238281 983.207031 202.820312 981.941406 202.433594 980.664062 C 202.046875 979.390625 201.691406 978.105469 201.367188 976.8125 C 201.042969 975.519531 200.753906 974.21875 200.492188 972.910156 C 200.234375 971.601562 200.003906 970.289062 199.808594 968.972656 C 199.613281 967.652344 199.449219 966.328125 199.320312 965.003906 C 199.1875 963.675781 199.089844 962.347656 199.027344 961.015625 C 198.960938 959.683594 198.925781 958.351562 198.925781 957.019531 L 198.925781 578.980469 C 198.925781 577.648438 198.960938 576.316406 199.027344 574.984375 C 199.089844 573.652344 199.1875 572.324219 199.320312 570.996094 C 199.449219 569.671875 199.613281 568.347656 199.808594 567.027344 C 200.003906 565.710938 200.234375 564.398438 200.492188 563.089844 C 200.753906 561.78125 201.042969 560.480469 201.367188 559.1875 C 201.691406 557.894531 202.046875 556.613281 202.433594 555.335938 C 202.820312 554.058594 203.238281 552.792969 203.6875 551.539062 C 204.136719 550.285156 204.617188 549.042969 205.128906 547.808594 C 205.636719 546.578125 206.179688 545.359375 206.746094 544.15625 C 207.316406 542.949219 207.917969 541.757812 208.546875 540.582031 C 209.171875 539.40625 209.832031 538.25 210.515625 537.105469 C 211.199219 535.960938 211.914062 534.835938 212.65625 533.726562 C 213.394531 532.617188 214.164062 531.527344 214.957031 530.457031 C 215.75 529.386719 216.570312 528.335938 217.417969 527.304688 C 218.261719 526.277344 219.132812 525.265625 220.027344 524.277344 C 220.921875 523.292969 221.839844 522.324219 222.785156 521.382812 C 223.726562 520.441406 224.691406 519.523438 225.679688 518.625 C 226.667969 517.730469 227.675781 516.859375 228.707031 516.015625 C 229.738281 515.167969 230.789062 514.351562 231.859375 513.554688 C 232.929688 512.761719 234.019531 511.992188 235.128906 511.253906 C 236.234375 510.511719 237.363281 509.800781 238.503906 509.113281 C 239.648438 508.429688 240.808594 507.773438 241.984375 507.144531 C 243.160156 506.515625 244.347656 505.917969 245.554688 505.347656 C 246.757812 504.777344 247.976562 504.238281 249.210938 503.726562 C 250.441406 503.214844 251.683594 502.738281 252.9375 502.289062 C 254.195312 501.839844 255.460938 501.421875 256.734375 501.035156 C 258.011719 500.644531 259.296875 500.289062 260.589844 499.96875 C 261.882812 499.644531 263.179688 499.351562 264.488281 499.089844 C 265.796875 498.832031 267.109375 498.601562 268.425781 498.40625 C 269.746094 498.210938 271.070312 498.046875 272.394531 497.917969 C 273.722656 497.789062 275.050781 497.6875 276.382812 497.625 C 277.714844 497.558594 279.046875 497.527344 280.378906 497.527344 L 1190.085938 497.527344 C 1191.417969 497.527344 1192.75 497.558594 1194.082031 497.625 C 1195.414062 497.6875 1196.742188 497.789062 1198.070312 497.917969 C 1199.394531 498.046875 1200.71875 498.210938 1202.035156 498.40625 C 1203.355469 498.601562 1204.667969 498.832031 1205.976562 499.089844 C 1207.285156 499.351562 1208.582031 499.644531 1209.875 499.96875 C 1211.167969 500.289062 1212.453125 500.644531 1213.730469 501.035156 C 1215.003906 501.421875 1216.269531 501.839844 1217.527344 502.289062 C 1218.78125 502.738281 1220.023438 503.214844 1221.253906 503.726562 C 1222.488281 504.238281 1223.707031 504.777344 1224.910156 505.347656 C 1226.117188 505.917969 1227.304688 506.515625 1228.480469 507.144531 C 1229.65625 507.773438 1230.816406 508.429688 1231.960938 509.113281 C 1233.101562 509.800781 1234.230469 510.511719 1235.335938 511.253906 C 1236.445312 511.992188 1237.535156 512.761719 1238.605469 513.554688 C 1239.675781 514.351562 1240.726562 515.167969 1241.757812 516.015625 C 1242.789062 516.859375 1243.796875 517.730469 1244.785156 518.625 C 1245.773438 519.523438 1246.738281 520.441406 1247.679688 521.382812 C 1248.625 522.328125 1249.542969 523.292969 1250.4375 524.277344 C 1251.332031 525.265625 1252.203125 526.277344 1253.046875 527.304688 C 1253.894531 528.335938 1254.714844 529.386719 1255.507812 530.457031 C 1256.300781 531.527344 1257.070312 532.617188 1257.808594 533.726562 C 1258.550781 534.835938 1259.265625 535.960938 1259.949219 537.105469 C 1260.632812 538.25 1261.292969 539.40625 1261.917969 540.582031 C 1262.546875 541.757812 1263.148438 542.949219 1263.71875 544.15625 C 1264.285156 545.359375 1264.828125 546.578125 1265.335938 547.808594 C 1265.847656 549.042969 1266.328125 550.285156 1266.777344 551.539062 C 1267.226562 552.792969 1267.644531 554.058594 1268.03125 555.335938 C 1268.417969 556.613281 1268.773438 557.894531 1269.097656 559.1875 C 1269.421875 560.480469 1269.710938 561.78125 1269.972656 563.089844 C 1270.230469 564.398438 1270.460938 565.710938 1270.65625 567.027344 C 1270.851562 568.347656 1271.015625 569.671875 1271.144531 570.996094 C 1271.277344 572.324219 1271.375 573.652344 1271.4375 574.984375 C 1271.503906 576.316406 1271.539062 577.648438 1271.539062 578.980469 Z M 1271.539062 578.980469 " fill-opacity="1" fill-rule="nonzero"/><path fill="#ffffff" d="M 1076.039062 797.71875 L 698.019531 631.742188 L 737.964844 785.414062 L 449.070312 714.722656 L 845.53125 899.140625 L 802.5 742.398438 Z M 1076.039062 797.71875 " fill-opacity="1" fill-rule="nonzero"/></svg>